<svg width="24" height="24" viewBox="0 0 24 24" fill="none" xmlns="http://www.w3.org/2000/svg">
<path fill-rule="evenodd" clip-rule="evenodd" d="M15 6H13H11H8.76389C9.31321 5.38625 10.1115 5 11 5H15C16.6569 5 18 6.34315 18 8V12C18 12.8885 17.6137 13.6868 17 14.2361V12V9V8C17 6.89543 16.1046 6 15 6ZM9 8H8H7C5.89543 8 5 8.89543 5 10V16C5 17.1046 5.89543 18 7 18H13C14.1046 18 15 17.1046 15 16V15V14V10C15 8.89543 14.1046 8 13 8H9ZM14 16V17H13H7C6.44772 17 6 16.5523 6 16V10C6 9.44772 6.44772 9 7 9H8H9H13H14V10V14V15V16Z" fill="#CDD6F4"/>
</svg>
