<svg width="24" height="24" viewBox="0 0 24 24" fill="none" xmlns="http://www.w3.org/2000/svg">
<rect width="24" height="24" fill="#1E1E2D"/>
<path fill-rule="evenodd" clip-rule="evenodd" d="M16 6H14H12H8.53513C9.22675 4.8044 10.5194 4 12 4H16C18.2091 4 20 5.79086 20 8V12C20 13.4806 19.1956 14.7733 18 15.4649V12V10V8C18 6.89543 17.1046 6 16 6ZM8 8L7 8C5.34315 8 4 9.34315 4 11V17C4 18.6569 5.34315 20 7 20H13C14.6569 20 16 18.6569 16 17V16V14V11C16 9.34315 14.6569 8 13 8L10 8H8ZM14 17V18H13H7H6V17V11V10H7H8H10H13H14V11V14V16V17Z" fill="#CDD6F4"/>
</svg>
