<svg width="24" height="24" viewBox="0 0 24 24" fill="none" xmlns="http://www.w3.org/2000/svg">
<path fill-rule="evenodd" clip-rule="evenodd" d="M15 5H14H11H8.35418C9.05931 4.37764 9.98555 4 11 4H15C17.2091 4 19 5.79086 19 8V12C19 13.0144 18.6224 13.9407 18 14.6458V12V9V8C18 6.34315 16.6569 5 15 5ZM8.17071 7H7.12602H6C4.89543 7 4 7.89543 4 9V17C4 18.1046 4.89543 19 6 19H14C15.1046 19 16 18.1046 16 17V15.874V14.8293V9C16 7.89543 15.1046 7 14 7H8.17071ZM14 18C14.5523 18 15 17.5523 15 17V16V15V9V8H14L8 8H7L6 8C5.44772 8 5 8.44772 5 9V17C5 17.5523 5.44772 18 6 18H14Z" fill="#CDD6F4"/>
</svg>
